<?xml version="1.0" encoding="UTF-8"?>
<svg id="Baśń_Klasyczna" data-name="Baśń Klasyczna" xmlns="http://www.w3.org/2000/svg" viewBox="0 0 50 50">
  <defs>
    <style>
      .cls-1 {
        fill: #fff;
      }
    </style>
  </defs>
  <path class="cls-1" d="M35.49,25.26h0s.12-.03.12-.03c-.08-1.65-.16-3.21-.02-3.77l.02-.09v-.09c-.03-.36-.2-.64-.5-.79-.28-.15-.67-.16-1.19-.02-.03-.05-.07-.1-.1-.15-.35-.52-.88-1.3-1.79-1.11l-.33.14c-.41-.45-1.02-.6-1.72-.42-1.73.45-4.02,2.87-4.91,4.71-.89-1.84-3.18-4.27-4.91-4.71-.71-.18-1.31-.03-1.72.42l-.25-.12-.08-.02c-.92-.19-1.44.6-1.79,1.11l-.1.14c-.52-.14-.92-.13-1.21.02-.29.16-.46.45-.48.81v.06s.02.09.02.09c.14.56.06,2.11-.02,3.79-.16,3.23-.36,7.24.62,9.09l.1.18.19.08c.71.28,1.79.9,2.94,1.57,2.26,1.3,4.82,2.78,6.42,2.78.02,0,.03,0,.04,0h.49c1.6,0,4.16-1.47,6.41-2.77,1.15-.66,2.24-1.29,2.96-1.57l.19-.08.1-.18c.98-1.85.78-5.86.62-9.08h-.12ZM19.77,20.01s.07.01.11.02c.4.1.89.38,1.42.8-.46-.27-.97-.54-1.53-.83ZM28.85,20.83c.53-.42,1.02-.7,1.42-.8.04,0,.07-.02.11-.02-.56.29-1.07.56-1.53.82ZM15.7,21.5c.22.04.71.17,1.68.66,1.03.52,2.24,1.24,3.31,1.87,1.22.73,2.02,1.2,2.55,1.43v11.96c-1.3-.51-2.89-1.43-4.29-2.24-1.08-.62-2.11-1.21-2.88-1.55-.74-1.68-.55-5.52-.41-8.33.08-1.67.15-3.01.05-3.8ZM17.85,20.32h.02c1.07.52,3.1,1.5,4.62,2.65.11.08.23.16.34.25.07.06.13.12.2.18.18.15.35.3.5.46.03.03.05.07.08.1.17.18.33.37.45.56h-.17s-.05-.02-.07-.03c-.03-.01-.06-.02-.1-.04-.03-.01-.07-.03-.1-.05-.05-.02-.09-.04-.14-.07-.04-.02-.09-.05-.13-.07-.06-.03-.11-.06-.17-.09-.05-.03-.1-.05-.15-.08-.07-.04-.13-.07-.2-.11-.03-.02-.07-.04-.1-.06-.46-.26-.97-.57-1.44-.84-1.47-.88-2.89-1.71-3.96-2.19.21-.31.39-.54.53-.56ZM25.78,37.56c-.44.06-.95.06-1.41.02v-11.94h1.41v11.93ZM28.15,22.6s.05-.03.07-.05c.85-.57,1.79-1.09,2.61-1.51.56-.29,1.07-.53,1.45-.71h.02c.14,0,.33.25.54.55-1.09.49-2.49,1.31-3.96,2.19-.99.59-2.23,1.33-2.61,1.44h-.17c.14-.22.32-.44.53-.65.41-.43.94-.85,1.52-1.25ZM26.91,37.43v-11.96c.53-.23,1.33-.7,2.55-1.43l.04-.02c1.06-.63,2.26-1.34,3.27-1.85.97-.48,1.45-.62,1.68-.65-.1.8-.04,2.14.05,3.82.14,2.8.33,6.63-.41,8.31-.78.34-1.81.93-2.9,1.56-1.4.81-2.98,1.71-4.27,2.23ZM25.33,38.82s0,0,0,0h0s0,0,0,0Z"/>
  <path class="cls-1" d="M28.24,16.65l-.19.19c-.07.07-.11.16-.11.25s.04.19.1.25l.37.36c.07.07.16.1.25.1s.18-.03.25-.1l.19-.19c.07-.07.11-.16.11-.25s-.04-.19-.1-.25l-.36-.36c-.13-.13-.37-.14-.5,0Z"/>
  <path class="cls-1" d="M22.64,11.92c.39.44,1.01,1.05,1.61,1.64.39.38.78.76,1.1,1.1l1.54,1.53s.03.04.04.04c-.01.02-.05.05-.08.08-.31.28-.62.38-1.03.34,0,0-.01,0-.02,0-.3,0-.36.3-.37.38-.07.18-.06.33.01.44.11.16.33.18.55.18.03,0,.06,0,.09,0h.08c.82-.04,1.34-.56,1.84-1.07l.11-.11c.5-.48,1.03-1.08.92-2.07-.02-.16-.06-.27-.14-.34-.14-.12-.31-.07-.43-.04-.03,0-.06.02-.09.02-.11.02-.2.06-.25.14-.06.08-.09.2-.07.32.03.36-.06.63-.35.96-.05.06-.07.07-.07.07,0,0-.02,0-.04-.03-.58-.58-1.16-1.16-1.73-1.74-.87-.88-1.7-1.71-2.49-2.47l-.04-.03c-.18-.11-.37-.22-.58-.33-.15-.07-.29-.06-.38.02-.12.1-.12.28,0,.48.09.16.19.33.29.5Z"/>
  <path class="cls-1" d="M21.08,17.9c.07.07.16.1.25.1s.18-.03.25-.1l.37-.36c.14-.14.14-.37,0-.5l-.19-.19c-.13-.14-.37-.13-.5,0l-.36.36c-.07.07-.11.16-.11.25s.04.19.1.25l.19.19Z"/>
  <path class="cls-1" d="M26.06,13.5c.59-.59,1.21-1.19,1.61-1.65.1-.16.2-.33.29-.5.1-.18.1-.36-.02-.46-.1-.08-.23-.09-.38-.02-.21.11-.41.23-.58.33l-.03.02c-.53.51-1.08,1.06-1.64,1.62l-.09.09.7.7.14-.14Z"/>
  <path class="cls-1" d="M21.96,16.58l.11.11c.5.51,1.02,1.03,1.84,1.07h.08s.06,0,.09,0c.22,0,.44-.02.55-.18.08-.11.08-.25.02-.42-.02-.1-.08-.4-.38-.4,0,0-.01,0-.02,0-.41.04-.72-.06-1.04-.35-.02-.02-.06-.05-.07-.05h0s0-.02.04-.05l1.54-1.54c.06-.06.12-.12.18-.19l.09-.09-.18-.18c-.09-.09-.19-.19-.3-.3l-.22-.22-.09.09c-.57.57-1.14,1.15-1.72,1.73-.02.02-.03.03-.03.03,0,0-.03-.01-.08-.08-.28-.32-.38-.59-.34-.95.02-.12,0-.24-.07-.33-.06-.08-.15-.13-.25-.14-.03,0-.06-.01-.09-.02-.12-.03-.29-.08-.43.04-.07.07-.12.18-.13.34-.1.99.42,1.59.92,2.07Z"/>
</svg>