<?xml version="1.0" encoding="UTF-8"?>
<svg id="Współpraca" xmlns="http://www.w3.org/2000/svg" viewBox="0 0 50 50">
  <defs>
    <style>
      .cls-1 {
        fill: #fff;
      }
    </style>
  </defs>
  <path class="cls-1" d="M36.15,27.74c-6.96,4.63-13.67,5.85-20.54,3.7l-.2-.05c-.91-.23-2.15-.54-2.72-.37l-.11.06-.02.04c-.04.09-.04.19,0,.29.15.38.87.71,1.66,1.06.12.05.23.1.33.14,2.62.91,5.29,1.36,7.91,1.36,5.27,0,10.32-1.82,14.35-5.32.83-.83.67-1.06.62-1.13-.09-.13-.32-.24-1.27.23Z"/>
  <path class="cls-1" d="M14.24,21.89c.05.02.11.02.16.02.23,0,.44-.15.54-.41.51-1.22,1.13-2.41,2.19-2.86,1.15-.49,2.53.09,3.72.72.19.1.39.1.57-.01.19-.12.3-.33.29-.54,0-.19-.11-.35-.29-.44-1.34-.71-3.09-1.45-4.68-.8-1.47.6-2.26,2.08-2.9,3.6-.05.12-.04.26.02.39.08.16.22.28.38.33Z"/>
  <path class="cls-1" d="M25.88,18.71c.18.05.38,0,.52-.16.68-.71,1.49-1.45,2.43-1.38.91.07,1.67.95,2.17,1.53.11.13.24.19.39.19.03,0,.06,0,.09,0,.2-.04.38-.2.46-.41.07-.2.03-.41-.11-.57-.71-.83-1.7-1.79-2.97-1.88-.06,0-.12,0-.17,0-1.25,0-2.31.91-3.09,1.72-.15.15-.2.35-.14.54.06.21.24.38.44.43Z"/>
</svg>