<svg width="32" height="32" viewBox="0 0 32 32" fill="none" xmlns="http://www.w3.org/2000/svg">
<path d="M28.7907 9.60397C28.6388 9.04051 28.342 8.52664 27.9298 8.11353C27.5176 7.70041 27.0044 7.40245 26.4413 7.2493C24.3533 6.67597 16 6.66664 16 6.66664C16 6.66664 7.648 6.6573 5.55866 7.2053C4.9959 7.3655 4.48376 7.66767 4.07142 8.08282C3.65908 8.49796 3.36038 9.01213 3.204 9.57597C2.65333 11.664 2.648 15.9946 2.648 15.9946C2.648 15.9946 2.64266 20.3466 3.18933 22.4133C3.496 23.556 4.396 24.4586 5.54 24.7666C7.64933 25.34 15.98 25.3493 15.98 25.3493C15.98 25.3493 24.3333 25.3586 26.4213 24.812C26.9847 24.6591 27.4983 24.3618 27.9115 23.9495C28.3247 23.5373 28.6232 23.0243 28.7773 22.4613C29.3293 20.3746 29.3333 16.0453 29.3333 16.0453C29.3333 16.0453 29.36 11.692 28.7907 9.60397ZM13.328 20.0066L13.3347 12.0066L20.2773 16.0133L13.328 20.0066Z" fill="white"/>
</svg>
